<svg xmlns="http://www.w3.org/2000/svg" viewBox="0 0 866.63 866.63"><defs><style>.cls-1{isolation:isolate;}.cls-2{fill:#fff;stroke-width:21px;}.cls-2,.cls-3,.cls-6{stroke:#1c1c1c;stroke-miterlimit:10;}.cls-3{fill:none;stroke-linecap:round;stroke-width:13px;stroke-dasharray:21;}.cls-4{mix-blend-mode:luminosity;}.cls-5,.cls-6{fill:#1c1c1c;}.cls-6{stroke-width:8px;}</style></defs><g class="cls-1"><g id="Capa_2" data-name="Capa 2"><g id="Capa_1-2" data-name="Capa 1"><circle class="cls-2" cx="433.32" cy="433.32" r="422.82"/><line class="cls-3" x1="433.32" y1="518.07" x2="433.32" y2="671.09"/><g class="cls-4"><path class="cls-5" d="M512.64,536.73,478.5,609.55l-17.74,37.51L442.43,685a10,10,0,0,1-11,5.43l-.9-.18a93.37,93.37,0,0,1-20.65-6.78A95.82,95.82,0,0,1,391.22,672a97.82,97.82,0,0,1-27.55-34.31,105.25,105.25,0,0,1-7.56-21.15A100.68,100.68,0,0,1,353.35,594a95.38,95.38,0,0,1,2.48-22.79A89.76,89.76,0,0,1,395,515.71a94.84,94.84,0,0,1,20.63-9.92,91.89,91.89,0,0,1,22.18-4.49c1.87-.19,3.75-.16,5.62-.24s3.73.05,5.58.09,3.71.27,5.54.49,3.67.44,5.47.82,3.6.68,5.37,1.16l2.64.68c.88.24,1.75.52,2.61.78A86,86,0,0,1,480.76,509a78.88,78.88,0,0,1,17.84,11.39c1.33,1.13,2.62,2.29,3.85,3.51.61.62,1.23,1.21,1.82,1.83l1.74,1.91c1.12,1.3,2.22,2.59,3.23,4l1.71,2.28A18.71,18.71,0,0,1,512.64,536.73Zm-3.35.54a15.71,15.71,0,0,0-1.86-.39l-.33-.07-.52-.25-1.07-.54c-.71-.36-1.42-.71-2.14-1s-1.41-.69-2.14-1c-2.85-1.28-5.74-2.38-8.6-3.37a88.8,88.8,0,0,0-17.29-4,83.65,83.65,0,0,0-17-.49c-1.39,0-2.77.26-4.13.38s-2.73.42-4.07.6-2.68.49-4,.8-2.63.59-3.91,1-2.58.72-3.83,1.18c-.63.22-1.27.41-1.89.64l-1.85.73c-2.47,1-4.85,2.1-7.2,3.25a79.67,79.67,0,0,0-13,8.53A78.3,78.3,0,0,0,403.59,554a80,80,0,0,0-8.7,12.39,82.91,82.91,0,0,0-6.3,13.85c-.45,1.2-.75,2.45-1.17,3.67s-.67,2.5-1,3.75a76.06,76.06,0,0,0-1.33,7.68,64,64,0,0,0,0,15.71,62.43,62.43,0,0,0,3.81,15.47,71.67,71.67,0,0,0,31.45,36.39,79,79,0,0,0,15.29,6.62l-11.9,5.25,20.61-33.52,21.21-33.93,21.69-34.61Z"/></g><path class="cls-5" d="M513.87,777.71a125.62,125.62,0,0,1-2.25,12.38A117.74,117.74,0,0,1,508,802.31a114,114,0,0,1-5.09,12,110.23,110.23,0,0,1-6.66,11.51,94.2,94.2,0,0,1-18.36,20.44,87.83,87.83,0,0,1-11.69,8.07,71.57,71.57,0,0,1-6.41,3.28c-2.18,1-4.42,1.93-6.7,2.78a82.42,82.42,0,0,1-28.84,4.82,92.66,92.66,0,0,1-29.07-5,90.64,90.64,0,0,1-26-14.16,94.46,94.46,0,0,1-10.88-10,107.84,107.84,0,0,1-9.15-11.48l-.91-1.33a14.63,14.63,0,0,1-.37-16.06c6.78-10.85,13.57-21.69,20.18-32.63l19.61-32.94c6.55-11,13-22,19.64-32.93l19.88-32.8.51-.85a8.39,8.39,0,0,1,8.27-4l3.6.47.39,0,.36.07,3.54.82,3.57.69.72.11a83.89,83.89,0,0,1,31.35,15.24,87.64,87.64,0,0,1,22.11,25.8,101.24,101.24,0,0,1,11.26,31A104.06,104.06,0,0,1,513.87,777.71Zm-3.36-.54a69.77,69.77,0,0,0-1-31.19,70.49,70.49,0,0,0-14.3-27.36A80.12,80.12,0,0,0,472,699.73a85.68,85.68,0,0,0-27.42-9.33l.72.12L441,690.1l-4.27-.58.75.11-2.8-.1,8.78-4.82-16.79,34.48c-5.61,11.49-11.36,22.89-17,34.35l-17.06,34.33c-5.61,11.48-11,23.07-16.48,34.65l-1.28-17.39A75.66,75.66,0,0,0,389.65,818a79.59,79.59,0,0,0,17.29,8.69,80.62,80.62,0,0,0,19,4.44c3.26.38,6.53.49,9.85.56s6.66-.18,10.05-.48A100.49,100.49,0,0,0,456,829.63a92.32,92.32,0,0,0,10.26-2.91,76.2,76.2,0,0,0,10.09-4.38,77.38,77.38,0,0,0,9.57-6,63.52,63.52,0,0,0,21.18-27.62A71.22,71.22,0,0,0,510.51,777.17Z"/><path class="cls-5" d="M349.2,684.13a79.29,79.29,0,0,1,10.51-8.06c1.75-1.21,3.51-2.19,5.26-3.26s3.5-1.92,5.26-2.89c3.5-1.82,7-3.4,10.51-4.82s7-2.66,10.52-3.73a135.68,135.68,0,0,1,21-4.68,145.77,145.77,0,0,1,21-1.46,150.26,150.26,0,0,1,21,1.52,135.8,135.8,0,0,1,21,4.71,127.16,127.16,0,0,1,21,8.54c1.75,1,3.5,1.83,5.26,2.87s3.5,2,5.25,3.25a79.67,79.67,0,0,1,10.52,8l.91.84a1.47,1.47,0,0,1-.91,2.56c-7,.38-14,.55-21,.83l-21,.47c-7,.2-14,.17-21,.24l-21,.16-21-.16c-7-.08-14,0-21-.23l-21-.48c-7-.28-14-.45-21-.83a1.47,1.47,0,0,1-.92-2.55Z"/><line class="cls-3" x1="433.32" y1="684.99" x2="433.32" y2="854.13"/><path class="cls-6" d="M687.1,264.18C687.1,404.35,573.46,518,433.32,518S179.53,404.35,179.53,264.18q0-12.59,1.22-24.86A252.26,252.26,0,0,1,194,179.67c34.82,98.61,128.84,169.26,239.37,169.26s204.53-70.65,239.36-169.25a252.18,252.18,0,0,1,13.2,59.64Q687.1,251.58,687.1,264.18Z"/><path class="cls-3" d="M193.3,182.55C229.66,81.27,325.89,13.39,432.67,13.39c104,0,198.31,64.45,236.66,162"/></g></g></g></svg>